<svg height="24" viewBox="0 0 24 24" width="24" xmlns="http://www.w3.org/2000/svg"><path d="m23.00025 0h-21.99975c-.55275 0-1.0005.44775-1.0005.99975v22.0005c0 .552.44775.99975 1.0005.99975h11.7495v-9h-3v-3.75h3v-3c0-3.09975 1.96275-4.62525 4.728-4.62525 1.3245 0 2.463.099 2.7945.1425v3.24l-1.91775.00075c-1.50375 0-1.85475.71475-1.85475 1.76325v2.47875h3.75l-.75 3.75h-3l.06 9h6.44025c.552 0 .99975-.44775.99975-.99975v-22.0005c0-.552-.44775-.99975-.99975-.99975" fill="#3b5998" fill-rule="evenodd"/></svg>