<svg height="24" viewBox="0 0 24 24" width="24" xmlns="http://www.w3.org/2000/svg"><path d="m17.3183118.07720369c1.2175751.05556952 2.0592476.2344824 2.8381772.53720863.7792649.30285162 1.3694417.68676574 1.9559386 1.27326117.5864079.5864731.9702853 1.17655047 1.2732543 1.95594306.3026751.77902011.4815483 1.6205676.5371165 2.83810834.0688372 1.50998064.0772016 2.0422234.0772016 5.31824931 0 3.2760782-.0083645 3.8083278-.0772046 5.3183154-.0555648 1.2175142-.2344365 2.0590688-.5372077 2.8383362-.3029161.7791904-.6868235 1.3693138-1.2731601 1.9556491-.5864405.5865055-1.1766318.9704449-1.9560534 1.2733574-.779155.302726-1.6206418.4815995-2.8380533.5371119-1.5096335.0688883-2.0417583.0772558-5.3183209.0772558-3.27656261 0-3.80868742-.0083675-5.31827618-.0772537-1.21746305-.0555149-2.05901671-.2343965-2.83830013-.5371725-.77925479-.3028734-1.36943-.6868126-1.95579777-1.2732455-.5864528-.5864513-.97040617-1.1766212-1.2733078-1.9559448-.3026751-.7790202-.4815483-1.6205676-.53711423-2.8380584-.06885095-1.5090364-.07720389-2.0408617-.07720389-5.3183509 0-3.2774414.00835297-3.80926344.07720474-5.31831788.05556508-1.21747217.23443828-2.05901966.53715799-2.83815458.30282788-.77920009.68677263-1.36934094 1.27320972-1.9557766.58642124-.58648635 1.17659645-.97042553 1.9558801-1.27331017.77890946-.30271839 1.6206416-.48164099 2.83818633-.53721138 1.50910979-.06885137 2.04088685-.07720359 5.31836112-.07720359 3.2774788 0 3.8092594.00835235 5.3183118.07720369zm-5.3183118 2.58946298c-3.24040496 0-3.73599287.00778382-5.19680071.07443147-.92705292.04231195-1.48367708.16063064-1.99372354.35885707-.4354981.16926531-.7122207.34928752-1.03623403.67333682-.32407963.32407884-.50410991.60079371-.67327919 1.03607965-.19826288.51028569-.31655362 1.06680996-.35886326 1.99384545-.06664805 1.46075445-.0744326 1.95638661-.0744326 5.19675707 0 3.2404182.00778454 3.7360539.07443175 5.1967901.04231049.9270541.16060123 1.4835783.35880562 1.9937135.16923729.4354239.34929485.7121881.67339115 1.0362836.32395986.3239959.60068246.5040181 1.03603006.6732249.5103899.1983024 1.06688668.3165921 1.99391382.3588634 1.46136532.0666856 1.95727316.0744836 5.19676093.0744836 3.2394878 0 3.7353956-.007798 5.1968056-.0744857.9269694-.0422686 1.4834-.1605481 1.9937027-.3588167.4355205-.1692596.7122343-.3492713 1.03625-.6733229.3239909-.3239901.5040463-.6007624.6732792-1.0360797.1982634-.5102871.3165533-1.0668165.3588611-1.9938493.066639-1.4617072.0744347-1.9577664.0744347-5.1968048 0-3.23898755-.0077957-3.73504045-.0744317-5.19673853-.0423105-.92705403-.1606012-1.4835783-.3587838-1.99365736-.1693047-.43553899-.3493438-.71228624-.6733595-1.03633793-.3239925-.3239917-.6007319-.50401261-1.0362568-.67327395-.5101027-.19824826-1.0666637-.31655581-1.9937407-.35886775-1.4607642-.06664811-1.9563596-.07443201-5.1967608-.07443201zm0 15.55555553c-3.43643844 0-6.22222222-2.7857838-6.22222222-6.2222222 0-3.43643844 2.78578378-6.22222222 6.22222222-6.22222222 3.4364384 0 6.2222222 2.78578378 6.2222222 6.22222222 0 3.4364384-2.7857838 6.2222222-6.2222222 6.2222222zm0-2.6666666c1.9636791 0 3.5555556-1.5918765 3.5555556-3.5555556s-1.5918765-3.55555556-3.5555556-3.55555556-3.55555556 1.59187646-3.55555556 3.55555556 1.59187646 3.5555556 3.55555556 3.5555556zm6.2222222-8.44444449c-.7363796 0-1.3333333-.59695367-1.3333333-1.33333333 0-.73637967.5969537-1.33333334 1.3333333-1.33333334.7363797 0 1.3333334.59695367 1.3333334 1.33333334 0 .73637966-.5969537 1.33333333-1.3333334 1.33333333z"/></svg>