<svg height="24" viewBox="0 0 24 24" width="24" xmlns="http://www.w3.org/2000/svg"><path d="m6.375 2c-1.375 0-3.375 1.5-3.875 2.5-.71460487 1.42920973-.5966626 1.99067969-.125 3.5.625 2 2.45744154 5.545116 5 8 3.625 3.5 7 5 8.5 5.5s3.125 0 4.125-1 2-2 .875-3.5c-.797195-1.0629266-1.9585173-2.2917587-3.375-3-1.2879836-.6439918-2.055573-.4095816-2.5.5-.2456858.5028302-.3219959 1.4659877-.5 2-.2245773.673732-1.125.5-2.125 0-.9573765-.4786883-3.375-2.5-5.375-5.5-1.23913485-1.85870228.74150655-1.87075328 2-2.5 1-.5 1.3099909-1.65001524.5-3-1.5-2.5-2-3.5-3.125-3.5z" fill="none" stroke="#000" stroke-width="2"/></svg>